<svg id="double-bed" xmlns="http://www.w3.org/2000/svg" width="41.356" height="33.638" viewBox="0 0 41.356 33.638">
  <path id="Path_55" data-name="Path 55" d="M1.42,22.672H39.9V21.1a2.729,2.729,0,0,0-.205-1.05,2.8,2.8,0,0,0-.609-.9,3.471,3.471,0,0,0-.528-.431,4.133,4.133,0,0,0-.623-.343q-.884-.192-1.757-.364t-1.767-.323a.571.571,0,0,1-.074-.013q-.449-.076-.858-.141c-.273-.044-.562-.088-.865-.135H32.6q-3.09-.394-6.163-.6T20.313,16.6c-1.2,0-2.407.02-3.608.067s-2.4.114-3.6.209H13.1c-1.124.1-2.245.236-3.369.387s-2.245.33-3.376.528l-.125.03a.251.251,0,0,1-.067.01.366.366,0,0,1-.061,0c-.528.094-1.07.2-1.629.31-.542.108-1.084.222-1.622.34a3.724,3.724,0,0,0-.384.246,3.211,3.211,0,0,0-.343.293h0A2.409,2.409,0,0,0,1.6,19.8a2.323,2.323,0,0,0-.178.905v1.969ZM4.779,0h31.3a3.006,3.006,0,0,1,1.154.229,3.107,3.107,0,0,1,.983.656A3.02,3.02,0,0,1,39.1,3.023V17.391a4.54,4.54,0,0,1,.495.333,5.026,5.026,0,0,1,.491.427,4.189,4.189,0,0,1,.919,1.356,4.1,4.1,0,0,1,.313,1.6v2.05c.01.034.02.067.027.1v.007a.809.809,0,0,1,.01.125.58.58,0,0,1-.013.131h0c-.007.034-.017.067-.027.1v9.31a.713.713,0,0,1-.71.71H39.141a.711.711,0,0,1-.438-.151.693.693,0,0,1-.249-.384,9.7,9.7,0,0,0-.835-1.865,3.271,3.271,0,0,0-.956-1.047,3.374,3.374,0,0,0-1.313-.481,10.748,10.748,0,0,0-1.888-.121l-26.846.034H6.6a3.452,3.452,0,0,0-1.326.2,2.3,2.3,0,0,0-.9.626,4.555,4.555,0,0,0-.71,1.141,15.592,15.592,0,0,0-.6,1.562h0a.684.684,0,0,1-.259.35.714.714,0,0,1-.384.135.093.093,0,0,1-.03,0H.71a.712.712,0,0,1-.71-.71V20.707a3.753,3.753,0,0,1,.283-1.451,3.862,3.862,0,0,1,.838-1.235,4.034,4.034,0,0,1,.33-.3c.1-.081.2-.158.31-.229V2.992a2.93,2.93,0,0,1,.229-1.144A3.018,3.018,0,0,1,3.628.229,2.989,2.989,0,0,1,4.779,0Zm31.3,1.42H4.779a1.651,1.651,0,0,0-.619.121,1.617,1.617,0,0,0-.522.343,1.58,1.58,0,0,0-.343.5,1.613,1.613,0,0,0-.114.6v13.82c.1-.034.2-.061.306-.088.165-.044.33-.081.495-.108l.747-.131c.2-.034.417-.071.64-.1V12.854a3.934,3.934,0,0,1,.3-1.5A3.97,3.97,0,0,1,7.809,9.209a3.934,3.934,0,0,1,1.5-.3h6.671a3.934,3.934,0,0,1,1.5.3A3.97,3.97,0,0,1,19.63,11.35a3.934,3.934,0,0,1,.3,1.5v2.252c.236,0,.471,0,.71,0V12.854a3.934,3.934,0,0,1,.3-1.5A3.97,3.97,0,0,1,23.08,9.209a3.934,3.934,0,0,1,1.5-.3h6.671a3.934,3.934,0,0,1,1.5.3A3.97,3.97,0,0,1,34.9,11.35a3.934,3.934,0,0,1,.3,1.5v3.48c.252.037.522.081.811.128.32.05.626.1.922.151.151.027.306.057.461.094.1.024.192.047.283.074V3.023a1.6,1.6,0,0,0-.121-.609,1.635,1.635,0,0,0-.868-.872,1.6,1.6,0,0,0-.609-.121ZM14.544,15.335c.677-.05,1.356-.094,2.046-.128.636-.034,1.279-.057,1.922-.074V12.854a2.481,2.481,0,0,0-.192-.963,2.522,2.522,0,0,0-.552-.821,2.594,2.594,0,0,0-.821-.552,2.481,2.481,0,0,0-.963-.192H9.313a2.481,2.481,0,0,0-.963.192,2.522,2.522,0,0,0-.821.552,2.594,2.594,0,0,0-.552.821,2.481,2.481,0,0,0-.192.963v3.3c.545-.081,1.1-.155,1.663-.229q.914-.116,1.814-.215c.232-.027.481-.057.74-.084.242-.027.495-.05.764-.077.458-.044.912-.084,1.36-.121s.932-.064,1.417-.094Zm7.516-.222q.611.01,1.222.03c.451.013.9.034,1.35.054h0q1.106.04,2.157.1c.7.04,1.383.091,2.036.148.949.084,1.868.185,2.74.3.781.108,1.521.229,2.215.364V12.854a2.481,2.481,0,0,0-.192-.963,2.522,2.522,0,0,0-.552-.821,2.594,2.594,0,0,0-.821-.552,2.481,2.481,0,0,0-.963-.192H24.587a2.481,2.481,0,0,0-.963.192,2.522,2.522,0,0,0-.821.552,2.594,2.594,0,0,0-.552.821,2.481,2.481,0,0,0-.192.963v2.258ZM39.9,24.1H1.42v8.122H1.9a13.409,13.409,0,0,1,.6-1.468A5.583,5.583,0,0,1,3.329,29.5a3.7,3.7,0,0,1,1.377-.986A4.818,4.818,0,0,1,6.641,28.2l26.822-.034a12.089,12.089,0,0,1,2.252.165,4.615,4.615,0,0,1,1.73.673,4.462,4.462,0,0,1,1.239,1.269,9.544,9.544,0,0,1,.953,1.939h.256V24.1Z" fill="#e28736"/>
</svg>
