<svg xmlns="http://www.w3.org/2000/svg" width="65.51" height="38.585" viewBox="0 0 65.51 38.585">
  <path id="floor-size" d="M8.334,13.759,32.444.148a1.147,1.147,0,0,1,1.129,0l24.089,13.73a1.149,1.149,0,0,1,.032,1.981L33.859,30.371a1.15,1.15,0,0,1-1.208-.006L8.243,15.782a1.152,1.152,0,0,1,.091-2.023ZM40.8,36.323a1.15,1.15,0,0,1-.586,2.225l-3.873-1.024a1.15,1.15,0,0,1-.819-1.406l1.043-3.946a1.15,1.15,0,0,1,2.225.586l-.36,1.358,22.952-13.24-1.26-.338a1.152,1.152,0,0,1,.595-2.225l3.942,1.057a1.152,1.152,0,0,1,.815,1.41l-1.036,3.869a1.152,1.152,0,0,1-2.225-.595l.319-1.19L39.7,36.033l1.1.29ZM26.074,38.547a1.152,1.152,0,1,1-.189-2.3l1.161-.1L3,21.783l.3,1.129a1.151,1.151,0,0,1-2.225.594L.043,19.637a1.152,1.152,0,0,1,.815-1.41L4.8,17.17A1.152,1.152,0,1,1,5.4,19.4l-1.315.352L28.589,34.4l-.111-1.309a1.152,1.152,0,0,1,2.3-.189l.345,4.068a1.153,1.153,0,0,1-1.053,1.244l-3.992.338ZM33,2.469,11.12,14.822,33.255,28.047,54.83,14.912Z" transform="translate(-0.004 -0.001)" fill="#e28736"/>
</svg>
