<svg xmlns="http://www.w3.org/2000/svg" width="55.248" height="43.331" viewBox="0 0 55.248 43.331">
  <g id="tea" transform="translate(-0.002)">
    <path id="Path_54" data-name="Path 54" d="M9.59,23.057a21.68,21.68,0,0,0-.375,3.812,14.549,14.549,0,0,0,.3,3.123,12.129,12.129,0,0,0,.643,1.921,11.218,11.218,0,0,0,3.231,4.294,12.7,12.7,0,0,0,3.03,1.828l.076,0h21.14a11.962,11.962,0,0,0,3.7-2.266,11.587,11.587,0,0,0,2.605-3.45,13.086,13.086,0,0,0,.988-2.708,14.553,14.553,0,0,0,.4-2.958,15.737,15.737,0,0,0-.974-5.956,15.282,15.282,0,0,0-2.762-4.71,13.842,13.842,0,0,0-4.115-3.244L16.731,12.9a.778.778,0,0,1-.1.022l-.08.009a16.773,16.773,0,0,0-3.584,3.311,17.531,17.531,0,0,0-2.56,4.308q-.255.61-.456,1.233c-.134.416-.255.831-.357,1.251l0,.027ZM38.872,39.336v1.385a2.641,2.641,0,0,1-.2,1,2.671,2.671,0,0,1-.567.849l-.009.009a2.588,2.588,0,0,1-.836.559,2.557,2.557,0,0,1-1,.2h-18.2a2.433,2.433,0,0,1-.921-.183,2.4,2.4,0,0,1-.782-.523l-.04-.045a2.309,2.309,0,0,1-.492-.769,2.371,2.371,0,0,1-.174-.889V39.537c-.42-.188-.822-.384-1.2-.594-.407-.223-.8-.465-1.166-.715l-.045,0a13.791,13.791,0,0,1-2.757-.536A12.3,12.3,0,0,1,8,36.628a10.962,10.962,0,0,1-2.118-1.56,10.562,10.562,0,0,1-1.649-2.006,14.823,14.823,0,0,1-2.1-4.7,22.225,22.225,0,0,1-.4-4.433l-.022-.822c-.009-.282-.018-.585-.036-.916-.031-.769-.085-1.533-.161-2.288s-.174-1.51-.3-2.257S.926,16.194.738,15.488A20.162,20.162,0,0,0,.059,13.41a.836.836,0,0,1,.478-1.086.833.833,0,0,1,.174-.045A.8.8,0,0,1,.89,12.27l3.789.067a.834.834,0,0,1,.769.532l3.2,7.579.027-.067c.058-.147.121-.308.188-.474a19.255,19.255,0,0,1,2.846-4.772A18.439,18.439,0,0,1,15.672,11.5V10a1.97,1.97,0,0,1,.152-.76,2.012,2.012,0,0,1,.433-.648l.009-.009a2.028,2.028,0,0,1,.635-.425A1.97,1.97,0,0,1,17.66,8h.375a9.62,9.62,0,0,1,.755-1.059,8.655,8.655,0,0,1,.947-.992A9.075,9.075,0,0,1,21,5.009a8.526,8.526,0,0,1,1.461-.715c.223-.085.456-.165.693-.232s.5-.134.764-.188l.326-.063a3,3,0,0,1-.1-.357,2.773,2.773,0,0,1-.058-.576,2.822,2.822,0,0,1,.219-1.1,2.9,2.9,0,0,1,1.56-1.56A2.784,2.784,0,0,1,26.959,0a2.822,2.822,0,0,1,1.1.219,2.88,2.88,0,0,1,1.778,2.659,2.739,2.739,0,0,1-.054.541c-.022.107-.049.214-.08.317.21.031.416.067.626.112s.4.089.59.139a9.132,9.132,0,0,1,1.756.657,8.72,8.72,0,0,1,1.533.97A8.563,8.563,0,0,1,35.369,6.73,9.684,9.684,0,0,1,36.294,8h.353a1.97,1.97,0,0,1,.76.152,2.012,2.012,0,0,1,.648.433l.009.009a2,2,0,0,1,.425.639,1.97,1.97,0,0,1,.152.76v1.457a15.64,15.64,0,0,1,1.729,1.113,15.363,15.363,0,0,1,1.56,1.327,9.55,9.55,0,0,1,5.255-.916,8.211,8.211,0,0,1,4.629,2.279,10.22,10.22,0,0,1,1.832,2.377,12.171,12.171,0,0,1,1.184,2.936,13.037,13.037,0,0,1,.42,3.24,12.363,12.363,0,0,1-.4,3.2,11.477,11.477,0,0,1-3.914,6.1,14.747,14.747,0,0,1-7.3,2.972h0a.647.647,0,0,1-.161,0l-.058,0a12.8,12.8,0,0,1-2.082,1.859,13.753,13.753,0,0,1-2.453,1.4Zm-21.534.416v1.166a.728.728,0,0,0,.049.264.677.677,0,0,0,.143.228l.022.022a.719.719,0,0,0,.514.214h18.2a.922.922,0,0,0,.353-.071.936.936,0,0,0,.5-.5.922.922,0,0,0,.071-.353v-.97H17.339ZM36.96,11.064V10a.336.336,0,0,0-.022-.116.507.507,0,0,0-.067-.1.3.3,0,0,0-.1-.067.336.336,0,0,0-.116-.022H17.665a.336.336,0,0,0-.116.022.507.507,0,0,0-.1.067.321.321,0,0,0-.089.214v1.22l19.6-.147ZM20.1,8H34.252c-.13-.156-.259-.308-.4-.451a6.96,6.96,0,0,0-.684-.626,6.7,6.7,0,0,0-1.242-.782,7.973,7.973,0,0,0-1.439-.536c-.161-.045-.322-.08-.492-.116h0c-.165-.036-.349-.067-.541-.094s-.4-.058-.6-.076-.407-.04-.617-.049h-.009a.859.859,0,0,1-.313-.085.828.828,0,0,1-.264-.206A.838.838,0,0,1,27.741,3.8a1.175,1.175,0,0,0,.179-.188,1.022,1.022,0,0,0,.134-.223,1.094,1.094,0,0,0,.08-.241,1.242,1.242,0,0,0-.063-.719,1.191,1.191,0,0,0-.648-.648,1.218,1.218,0,0,0-.916,0,1.287,1.287,0,0,0-.389.259,1.141,1.141,0,0,0-.259.389l0,.009a1.247,1.247,0,0,0-.085.451,1.268,1.268,0,0,0,.027.268,1.141,1.141,0,0,0,.085.246l0,.013a.836.836,0,0,0,.13.206,1.529,1.529,0,0,0,.188.192l.013.013a.81.81,0,0,1,.2.246.79.79,0,0,1,.094.322A.842.842,0,0,1,26.316,5l-.009.009a.84.84,0,0,1-.559.286h-.013c-.25.022-.5.054-.755.089s-.492.08-.728.13-.438.1-.643.156-.384.116-.554.183l-.009,0a7.08,7.08,0,0,0-1.166.576A6.59,6.59,0,0,0,20.86,7.2c-.179.161-.349.331-.514.509-.085.094-.17.192-.25.29ZM44.86,34.135a12.188,12.188,0,0,0,5.318-2.6,9.746,9.746,0,0,0,3.052-4.951,11.07,11.07,0,0,0,.349-2.779,11.426,11.426,0,0,0-.366-2.82,10.363,10.363,0,0,0-1.01-2.516l0-.013a8.642,8.642,0,0,0-1.537-2A6.558,6.558,0,0,0,47.1,14.666a7.587,7.587,0,0,0-3.964.532,15.992,15.992,0,0,1,1.537,2.221A17.53,17.53,0,0,1,47.009,26.7a16.181,16.181,0,0,1-.447,3.32,14.58,14.58,0,0,1-1.108,3.043q-.181.362-.389.724c-.067.112-.134.228-.206.344ZM7.888,30.39a14.233,14.233,0,0,1-.273-1.434c-.067-.492-.116-.988-.139-1.488A16.719,16.719,0,0,1,7.535,25.2a17.539,17.539,0,0,1,.357-2.239L4.1,14l-2.069-.036c.17.518.317,1.041.447,1.564.152.608.277,1.215.384,1.832.134.769.237,1.551.317,2.346s.134,1.6.17,2.4h0c.013.3.022.6.031.9l.027.867a20.473,20.473,0,0,0,.362,4.057,13.291,13.291,0,0,0,1.877,4.223,8.707,8.707,0,0,0,1.385,1.685,9.272,9.272,0,0,0,1.787,1.318,10.553,10.553,0,0,0,1.131.55c.21.085.42.165.635.241a12.483,12.483,0,0,1-.9-1.2A12.276,12.276,0,0,1,8.6,32.7c-.143-.349-.277-.719-.4-1.1s-.223-.791-.313-1.211Z" transform="translate(0)" fill="#e28736"/>
  </g>
</svg>
