<svg xmlns="http://www.w3.org/2000/svg" width="16.75" height="15.462" viewBox="0 0 16.75 15.462">
  <g id="calender-black" transform="translate(-3.375 -4.5)">
    <path id="Path_35" data-name="Path 35" d="M18.514,6.75H16.9v.966a.323.323,0,0,1-.322.322h-.644a.323.323,0,0,1-.322-.322V6.75H7.885v.966a.323.323,0,0,1-.322.322H6.918A.323.323,0,0,1,6.6,7.716V6.75H4.986A1.615,1.615,0,0,0,3.375,8.361V19.313a1.615,1.615,0,0,0,1.611,1.611H18.514a1.615,1.615,0,0,0,1.611-1.611V8.361A1.615,1.615,0,0,0,18.514,6.75Zm.322,12.079a.808.808,0,0,1-.805.805H5.469a.808.808,0,0,1-.805-.805V11.582a.323.323,0,0,1,.322-.322H18.514a.323.323,0,0,1,.322.322Z" transform="translate(0 -0.962)"/>
    <path id="Path_36" data-name="Path 36" d="M10.288,4.822A.323.323,0,0,0,9.966,4.5H9.322A.323.323,0,0,0,9,4.822v.966h1.288Z" transform="translate(-2.404)"/>
    <path id="Path_37" data-name="Path 37" d="M26.038,4.822a.323.323,0,0,0-.322-.322h-.644a.323.323,0,0,0-.322.322v.966h1.288Z" transform="translate(-9.135)"/>
  </g>
</svg>
