<svg xmlns="http://www.w3.org/2000/svg" width="23.234" height="18.87" viewBox="0 0 23.234 18.87">
  <path id="twitter" d="M20.846,8.084c.015.206.015.413.015.619A13.455,13.455,0,0,1,7.312,22.251,13.456,13.456,0,0,1,0,20.113a9.851,9.851,0,0,0,1.15.059,9.536,9.536,0,0,0,5.912-2.034,4.77,4.77,0,0,1-4.452-3.3,6.005,6.005,0,0,0,.9.074,5.036,5.036,0,0,0,1.253-.162A4.762,4.762,0,0,1,.943,10.074v-.059a4.8,4.8,0,0,0,2.152.6A4.769,4.769,0,0,1,1.622,4.251,13.535,13.535,0,0,0,11.44,9.233a5.375,5.375,0,0,1-.118-1.091,4.766,4.766,0,0,1,8.241-3.258,9.375,9.375,0,0,0,3.022-1.15,4.749,4.749,0,0,1-2.093,2.624,9.546,9.546,0,0,0,2.742-.737,10.236,10.236,0,0,1-2.388,2.462Z" transform="translate(0 -3.381)" fill="#2f3130"/>
</svg>
