<svg xmlns="http://www.w3.org/2000/svg" width="28.611" height="28.611" viewBox="0 0 28.611 28.611">
  <path id="call" d="M31.521,24.369a18.656,18.656,0,0,1-5.642-.874,1.487,1.487,0,0,0-1.589.4l-3.5,3.5A23.9,23.9,0,0,1,10.3,16.9l3.5-3.5a1.656,1.656,0,0,0,.4-1.589,17.287,17.287,0,0,1-.954-5.722A1.594,1.594,0,0,0,11.653,4.5H6.089A1.594,1.594,0,0,0,4.5,6.089,27,27,0,0,0,31.521,33.111a1.6,1.6,0,0,0,1.59-1.589V25.958A1.6,1.6,0,0,0,31.521,24.369Z" transform="translate(-4.5 -4.5)" fill="#2f3130"/>
</svg>
