<svg xmlns="http://www.w3.org/2000/svg" width="20.586" height="20.582" viewBox="0 0 20.586 20.582">
  <path id="insta-white" d="M10.29,7.252a5.277,5.277,0,1,0,5.277,5.277A5.269,5.269,0,0,0,10.29,7.252Zm0,8.708a3.431,3.431,0,1,1,3.431-3.431,3.437,3.437,0,0,1-3.431,3.431Zm6.724-8.923A1.231,1.231,0,1,1,15.783,5.8,1.228,1.228,0,0,1,17.014,7.036Zm3.495,1.249a6.091,6.091,0,0,0-1.663-4.312A6.131,6.131,0,0,0,14.534,2.31c-1.7-.1-6.792-.1-8.492,0A6.122,6.122,0,0,0,1.73,3.968,6.111,6.111,0,0,0,.067,8.28c-.1,1.7-.1,6.792,0,8.492A6.091,6.091,0,0,0,1.73,21.084a6.139,6.139,0,0,0,4.312,1.663c1.7.1,6.792.1,8.492,0a6.091,6.091,0,0,0,4.312-1.663,6.131,6.131,0,0,0,1.663-4.312c.1-1.7.1-6.788,0-8.487Zm-2.2,10.31a3.473,3.473,0,0,1-1.956,1.956c-1.355.537-4.57.413-6.067.413s-4.717.119-6.067-.413A3.473,3.473,0,0,1,2.267,18.6c-.537-1.355-.413-4.57-.413-6.067s-.119-4.717.413-6.067A3.473,3.473,0,0,1,4.223,4.505c1.355-.537,4.57-.413,6.067-.413s4.717-.119,6.067.413a3.473,3.473,0,0,1,1.956,1.956c.537,1.355.413,4.57.413,6.067S18.851,17.245,18.313,18.6Z" transform="translate(0.005 -2.238)" fill="#fff"/>
</svg>
