<svg xmlns="http://www.w3.org/2000/svg" width="34.969" height="34.969" viewBox="0 0 34.969 34.969">
  <path id="location" d="M18.984,12.626a6.358,6.358,0,1,0,6.358,6.358A6.356,6.356,0,0,0,18.984,12.626Zm14.21,4.768A14.3,14.3,0,0,0,20.574,4.774V1.5H17.395V4.774A14.3,14.3,0,0,0,4.774,17.395H1.5v3.179H4.774A14.3,14.3,0,0,0,17.395,33.195v3.274h3.179V33.195A14.3,14.3,0,0,0,33.195,20.574h3.274V17.395ZM18.984,30.111A11.126,11.126,0,1,1,30.111,18.984,11.118,11.118,0,0,1,18.984,30.111Z" transform="translate(-1.5 -1.5)"/>
</svg>
