<?xml version="1.0" encoding="UTF-8"?><svg id="Layer_1" xmlns="http://www.w3.org/2000/svg" viewBox="0 0 1460.05 1591.1"><defs><style>.cls-1{letter-spacing:-.02em;}.cls-2{letter-spacing:-.02em;}.cls-3{letter-spacing:-.09em;}.cls-4{font-size:100.74px;}.cls-4,.cls-5,.cls-6{fill:#fff;}.cls-4,.cls-6{font-family:Andea-Rounded, Andea;}.cls-7{letter-spacing:-.07em;}.cls-8{letter-spacing:-.06em;}.cls-9{letter-spacing:-.1em;}.cls-6{font-size:49.83px;}</style></defs><rect class="cls-5" width="1200" height="1200"/><g><text class="cls-4" transform="translate(329.59 261.3)"><tspan x="0" y="0">Himal</tspan><tspan class="cls-2" x="260.91" y="0">a</tspan><tspan class="cls-3" x="318.84" y="0">y</tspan><tspan x="375.45" y="0">an</tspan></text><path class="cls-5" d="M186.67,188.74v89.99c0,14.59-12.06,26.51-27.09,27.01v-89.99c0-14.59,12.06-26.51,27.09-27.01Z"/><path class="cls-5" d="M255.37,188.74v89.99c0,14.59-12.06,26.51-27.09,27.01v-89.99c0-14.59,12.06-26.51,27.09-27.01Z"/><text class="cls-6" transform="translate(331.42 305.03)"><tspan x="0" y="0">B</tspan><tspan class="cls-9" x="30.35" y="0">r</tspan><tspan class="cls-8" x="46.74" y="0">o</tspan><tspan x="73.65" y="0">the</tspan><tspan class="cls-7" x="152.38" y="0">r</tspan><tspan class="cls-1" x="170.23" y="0">s</tspan><tspan x="192.2" y="0">.</tspan></text><path class="cls-5" d="M311.81,294.89c0-3.04-.31-6.01-.89-8.87-.05-.27-.11-.54-.17-.81-4.42-19.14-21.57-33.4-42.04-33.4-1.29,0-2.57,.06-3.83,.17v53.76h36.97c.86-.07,1.71-.24,2.5-.51,.03,0,.07-.02,.1-.04,1.59-.54,3.01-1.43,4.18-2.6,1.98-1.98,3.19-4.7,3.19-7.7Z"/><path class="cls-5" d="M311.81,199.59c0,3.04-.31,6.01-.89,8.87-.05,.27-.11,.54-.17,.81-4.42,19.14-21.57,33.4-42.04,33.4-1.29,0-2.57-.06-3.83-.17v-53.76h36.97c.86,.07,1.71,.24,2.5,.51,.03,0,.07,.02,.1,.04,1.59,.54,3.01,1.43,4.18,2.6,1.98,1.98,3.19,4.7,3.19,7.7Z"/><path class="cls-5" d="M222.68,232.4c0,7.98-3.11,15.48-8.75,21.13-5.96,5.96-13.83,8.87-21.65,8.73-.14-7.82,2.77-15.7,8.73-21.66,5.82-5.82,13.48-8.73,21.13-8.73,.18,0,.36,0,.54,0,0,.18,0,.35,0,.53Z"/></g></svg>