<?xml version="1.0" encoding="UTF-8"?><svg id="Layer_1" xmlns="http://www.w3.org/2000/svg" viewBox="0 0 1115.7 838.57"><defs><style>.cls-1{fill:#fff;}.cls-2{fill:#e28736;}</style></defs><path class="cls-1" d="M113.73,579.7c0-3.97,3.27-7.01,7.01-7.01h14.02c3.97,0,7.01,3.04,7.01,7.01v149.59c0,3.97-3.04,7.01-7.01,7.01h-14.02c-3.74,0-7.01-3.04-7.01-7.01v-63.11H29.12v63.11c0,3.97-3.04,7.01-7.01,7.01H8.08c-3.97,0-7.01-3.04-7.01-7.01v-149.59c0-3.97,3.04-7.01,7.01-7.01h14.02c3.97,0,7.01,3.04,7.01,7.01v58.43H113.73v-58.43Z"/><path class="cls-1" d="M162.8,589.05c0-9.12,7.25-16.36,16.36-16.36s16.36,7.25,16.36,16.36-7.25,16.36-16.36,16.36-16.36-7.25-16.36-16.36Zm9.58,147.25c-3.97,0-7.01-3.27-7.01-7.01v-102.84c0-3.97,3.04-7.01,7.01-7.01h14.02c3.74,0,7.01,3.04,7.01,7.01v102.84c0,3.74-3.27,7.01-7.01,7.01h-14.02Z"/><path class="cls-1" d="M397,662.91v66.38c0,3.97-3.27,7.01-7.01,7.01h-13.79c-3.74,0-7.01-3.04-7.01-7.01v-58.2c0-6.31-2.34-12.39-7.01-17.06s-10.75-7.01-17.06-7.01-12.39,2.34-17.06,7.01-7.25,10.75-7.25,17.06v58.2c0,3.97-3.04,7.01-7.01,7.01h-13.79c-3.74,0-7.01-3.04-7.01-7.01v-58.2c0-6.31-2.34-12.39-7.01-17.06s-10.75-7.01-17.06-7.01-12.39,2.34-17.06,7.01-7.25,10.75-7.25,17.06v58.2c0,3.97-3.04,7.01-7.01,7.01h-14.02c-3.97,0-7.01-3.04-7.01-7.01v-103.08c0-3.74,3.04-7.01,7.01-7.01h14.02c3.97,0,7.01,3.27,7.01,7.01v5.38c8.88-7.95,19.63-13.09,31.79-13.09,16.36,0,29.45,8.88,37.16,20.8,9.82-12.15,23.37-20.8,39.03-20.8,25.94,0,44.41,22.91,44.41,44.41Z"/><path class="cls-1" d="M508.25,626.45c0-3.97,3.27-7.01,7.01-7.01h14.02c3.97,0,7.01,3.04,7.01,7.01v102.84c0,3.97-3.04,7.01-7.01,7.01h-14.02c-3.74,0-7.01-3.04-7.01-7.01v-6.78c-7.71,8.65-18.7,14.96-33.89,14.96-32.25,0-56.33-26.88-56.33-59.6s24.08-59.6,56.33-59.6c14.96,0,25.94,5.84,33.89,14.49v-6.31Zm0,51.42c0-9.12-3.51-17.53-9.58-23.84-6.08-6.08-13.79-9.58-22.21-9.58s-16.13,3.51-21.97,9.58c-6.31,6.31-9.58,14.73-9.58,23.84s3.27,17.53,9.58,23.84c5.84,5.84,13.79,9.35,21.97,9.35s16.13-3.27,22.21-9.35,9.58-14.96,9.58-23.84Z"/><path class="cls-1" d="M564.34,736.3c-3.97,0-7.01-3.04-7.01-7.01v-149.59c0-3.74,3.04-7.01,7.01-7.01h14.02c3.97,0,7.01,3.27,7.01,7.01v149.59c0,3.97-3.04,7.01-7.01,7.01h-14.02Z"/><path class="cls-1" d="M696.63,626.45c0-3.97,3.27-7.01,7.01-7.01h14.02c3.97,0,7.01,3.04,7.01,7.01v102.84c0,3.97-3.04,7.01-7.01,7.01h-14.02c-3.74,0-7.01-3.04-7.01-7.01v-6.78c-7.71,8.65-18.7,14.96-33.89,14.96-32.25,0-56.33-26.88-56.33-59.6s24.08-59.6,56.33-59.6c14.96,0,25.94,5.84,33.89,14.49v-6.31Zm0,51.42c0-9.12-3.51-17.53-9.58-23.84-6.08-6.08-13.79-9.58-22.21-9.58s-16.13,3.51-21.97,9.58c-6.31,6.31-9.58,14.73-9.58,23.84s3.27,17.53,9.58,23.84c5.84,5.84,13.79,9.35,21.97,9.35s16.13-3.27,22.21-9.35,9.58-14.96,9.58-23.84Z"/><path class="cls-1" d="M763.71,806.19c-2.8,0-4.67-2.1-4.67-4.67,0-.47,.23-1.17,.47-1.87l29.92-64.74-48.15-108.92c-.23-.7-.47-1.17-.47-1.87,0-2.34,2.1-4.67,4.67-4.67h17.06c3.97,0,7.48,2.34,9.12,6.08l33.42,75.5,35.29-75.73c1.64-3.51,5.14-5.84,9.12-5.84h17.06c2.81,0,4.67,2.1,4.67,4.67,0,.7-.23,1.4-.47,2.1l-50.49,108.92,.23,.23-.47,.23-30.15,65.21c-1.64,3.27-4.91,5.38-8.65,5.38h-17.53Z"/><path class="cls-1" d="M962.37,626.45c0-3.97,3.27-7.01,7.01-7.01h14.02c3.97,0,7.01,3.04,7.01,7.01v102.84c0,3.97-3.04,7.01-7.01,7.01h-14.02c-3.74,0-7.01-3.04-7.01-7.01v-6.78c-7.71,8.65-18.7,14.96-33.89,14.96-32.25,0-56.33-26.88-56.33-59.6s24.08-59.6,56.33-59.6c14.96,0,25.94,5.84,33.89,14.49v-6.31Zm0,51.42c0-9.12-3.51-17.53-9.58-23.84-6.08-6.08-13.79-9.58-22.21-9.58s-16.13,3.51-21.97,9.58c-6.31,6.31-9.58,14.73-9.58,23.84s3.27,17.53,9.58,23.84c5.84,5.84,13.79,9.35,21.97,9.35s16.13-3.27,22.21-9.35,9.58-14.96,9.58-23.84Z"/><path class="cls-1" d="M1115.7,662.91v66.38c0,3.97-3.27,7.01-7.01,7.01h-13.79c-3.74,0-7.01-3.04-7.01-7.01v-58.2c0-6.31-2.34-12.39-7.01-17.06-4.67-4.67-10.75-7.01-17.06-7.01s-12.39,2.34-17.06,7.01c-4.67,4.67-7.25,10.75-7.25,17.06v58.2c0,3.97-3.04,7.01-7.01,7.01h-14.02c-3.97,0-7.01-3.04-7.01-7.01v-103.08c0-3.74,3.04-7.01,7.01-7.01h14.02c3.97,0,7.01,3.27,7.01,7.01v5.38c8.88-7.95,19.63-13.09,31.79-13.09,25.95,0,44.41,22.91,44.41,44.41Z"/><path class="cls-1" d="M355.25,0V378.18c0,61.25-50.58,111.36-113.68,113.45V113.68c-.23-61.48,50.35-111.36,113.68-113.68h0Z"/><path class="cls-1" d="M643.64,0V378.18c0,61.25-50.58,111.36-113.68,113.45V113.68c0-61.48,50.58-111.36,113.68-113.68h0Z"/><path class="cls-2" d="M60,813.37c0,13.41-10.87,24.28-24.28,24.28H3.47c-1.97,0-3.47-1.5-3.47-3.47v-73.88c0-1.96,1.5-3.47,3.47-3.47H31.1c12.83,0,23.12,10.41,23.12,23.12,0,5.09-1.62,9.83-4.39,13.64,6.13,4.39,10.17,11.68,10.17,19.77Zm-46.13-42.66v18.38h18.27c2.08-.23,4.05-1.04,5.55-2.54,1.73-1.85,2.66-4.16,2.66-6.59s-.92-4.74-2.66-6.59c-1.73-1.73-4.16-2.66-6.59-2.66H13.87Zm32.26,42.66c0-2.78-1.04-5.32-3.01-7.28-1.97-1.97-4.62-3.12-7.4-3.12h-2.89c-.58,.12-1.16,.12-1.73,.12H13.87v20.7h21.85c2.77,0,5.43-1.04,7.4-3.01,1.96-1.97,3.01-4.51,3.01-7.4Z"/><path class="cls-2" d="M104.17,794.18c-.35,.58-.92,.92-1.62,.92-.23,0-.58-.12-.81-.23-1.62-.81-3.47-1.27-5.43-1.27-3.12,0-6.13,1.16-8.44,3.47-2.31,2.31-3.58,5.32-3.58,8.44v28.79c0,1.97-1.5,3.47-3.47,3.47h-6.94c-1.97,0-3.47-1.5-3.47-3.47v-50.99c0-1.85,1.5-3.47,3.47-3.47h6.94c1.97,0,3.47,1.62,3.47,3.47v2.66c4.39-3.93,9.71-6.47,15.72-6.47,2.89,0,5.55,.58,7.98,1.5,.81,.35,1.39,1.27,1.39,2.2,0,.35-.12,.69-.23,1.04l-4.97,9.94Z"/><path class="cls-2" d="M167.41,808.97c0,16.19-13.18,29.48-29.48,29.48s-29.48-13.3-29.48-29.48,13.18-29.48,29.48-29.48,29.48,13.18,29.48,29.48Zm-40.47-11.1c-3.01,3.01-4.62,6.94-4.62,11.1s1.62,7.98,4.62,10.98,6.82,4.62,10.98,4.62,7.98-1.62,10.98-4.62c3.01-3.01,4.62-6.82,4.62-10.98s-1.62-8.09-4.62-11.1-6.82-4.51-10.98-4.51-8.09,1.62-10.98,4.51Z"/><path class="cls-2" d="M211.34,834.53c.12,.23,.12,.58,.12,.81,0,1.04-.58,1.96-1.62,2.2-1.96,.46-3.93,.81-6.01,.81-12.37,0-22.54-10.17-22.54-22.54v-21.97h-6.94c-1.97,0-3.47-1.5-3.47-3.47v-6.94c0-1.96,1.5-3.47,3.47-3.47h6.94v-10.41c0-1.97,1.5-3.47,3.47-3.47h6.94c1.85,0,3.47,1.5,3.47,3.47v10.41h6.94c1.97,0,3.47,1.5,3.47,3.47v6.94c0,1.96-1.5,3.47-3.47,3.47h-6.94v21.97c0,2.31,.92,4.39,2.54,6.13,1.62,1.62,3.82,2.54,6.13,2.54,.69,0,1.5-.12,2.2-.35,.12,0,.23-.12,.46-.12,.69,0,1.39,.46,1.62,1.27l3.24,9.25Z"/><path class="cls-2" d="M273.42,801.46v32.83c0,1.97-1.62,3.47-3.47,3.47h-6.82c-1.85,0-3.47-1.5-3.47-3.47v-28.79c0-3.12-1.16-6.13-3.47-8.44-2.31-2.31-5.32-3.47-8.44-3.47s-6.13,1.16-8.44,3.47c-2.31,2.31-3.58,5.32-3.58,8.44v28.79c0,1.97-1.5,3.47-3.47,3.47h-6.94c-1.97,0-3.47-1.5-3.47-3.47v-74.11c0-1.85,1.5-3.47,3.47-3.47h6.94c1.97,0,3.47,1.62,3.47,3.47v25.78c4.39-3.93,9.71-6.47,15.72-6.47,12.83,0,21.97,11.33,21.97,21.97Z"/><path class="cls-2" d="M342.67,814.18c-.23,1.04-1.16,1.85-2.31,1.85h-41.04c.81,1.5,1.73,2.89,3.01,4.16,3.01,3.01,6.94,4.39,10.98,4.51,2.89,0,5.67-.69,8.09-2.08,.35-.23,.81-.35,1.16-.35,.69,0,1.27,.23,1.73,.69l6.47,6.94c.46,.46,.58,.93,.58,1.5,0,.81-.23,1.5-.92,1.96-4.86,3.35-10.64,5.2-17,5.2-13.87,0-25.67-9.6-28.79-22.54-.58-2.31-.81-4.62-.81-7.05,0-16.42,13.3-29.71,29.6-29.71s29.71,13.3,29.71,29.71c0,1.73-.12,3.47-.46,5.2Zm-14.92-12.02c-.81-1.62-1.73-3.01-3.12-4.39-3.01-3.01-6.94-4.62-11.21-4.62s-8.09,1.62-11.1,4.62c-1.39,1.39-2.31,2.77-3.12,4.39h28.56Z"/><path class="cls-2" d="M387.3,794.18c-.35,.58-.92,.92-1.62,.92-.23,0-.58-.12-.81-.23-1.62-.81-3.47-1.27-5.43-1.27-3.12,0-6.13,1.16-8.44,3.47-2.31,2.31-3.58,5.32-3.58,8.44v28.79c0,1.97-1.5,3.47-3.47,3.47h-6.94c-1.97,0-3.47-1.5-3.47-3.47v-50.99c0-1.85,1.5-3.47,3.47-3.47h6.94c1.97,0,3.47,1.62,3.47,3.47v2.66c4.39-3.93,9.71-6.47,15.72-6.47,2.89,0,5.55,.58,7.98,1.5,.81,.35,1.39,1.27,1.39,2.2,0,.35-.12,.69-.23,1.04l-4.97,9.94Z"/><path class="cls-2" d="M396.22,832.21c-.58-.35-.92-1.04-.92-1.73,0-.46,.23-1.04,.58-1.5l5.67-6.71c.58-.69,1.39-1.04,2.2-1.04,.58,0,1.16,.12,1.62,.46,2.89,1.96,6.01,2.77,9.94,2.77,2.89,0,5.43-.58,7.05-1.73,1.27-.81,1.73-1.62,1.73-3.12,0-2.2-3.7-4.16-9.13-4.62-7.05-.69-12.14-2.66-15.61-6.13-2.89-2.89-4.39-6.71-4.39-11.21v-1.04c.23-4.39,2.54-8.79,6.24-11.91,2.77-2.31,7.75-5.09,15.38-5.09,8.79,0,15.15,3.7,18.27,6.01,.58,.46,.81,1.16,.81,1.85,0,.58-.12,1.16-.58,1.62l-6.24,6.36c-.58,.58-1.39,.81-2.08,.81-.58,0-1.04-.12-1.5-.35-1.73-1.16-4.86-2.43-8.67-2.43-1.97,0-4.51,.23-6.36,1.85-1.16,.92-1.39,1.73-1.39,1.96,0,1.39,.23,1.62,.35,1.85,.46,.35,1.97,1.5,7.05,1.96,6.36,.58,11.45,2.43,15.26,5.43,4.16,3.35,6.47,7.98,6.47,13.06,0,6.13-2.89,11.45-7.98,14.8-3.93,2.54-9.13,3.93-14.68,3.93-7.28,0-13.41-1.97-19.08-6.13Z"/><path class="cls-2" d="M445.92,829.79c0-4.51,3.58-8.09,8.09-8.09s8.09,3.58,8.09,8.09-3.58,8.09-8.09,8.09-8.09-3.58-8.09-8.09Z"/><path class="cls-2" d="M880.75,445.92c0-12.76-1.16-25.29-3.71-37.35-.23-1.16-.46-2.32-.7-3.48-18.56-80.28-90.48-140.37-176.56-140.37-5.34,0-10.9,.23-16.01,.7v225.75h155.21c3.71-.23,7.19-.93,10.44-2.09q.23,0,.46-.23c6.73-2.32,12.76-6.03,17.63-10.9,8.12-7.89,13.22-19.26,13.22-32.02h0Z"/><path class="cls-2" d="M880.75,45.71c0,12.76-1.16,25.29-3.71,37.35-.23,1.16-.46,2.32-.7,3.48-18.56,80.28-90.48,140.37-176.56,140.37-5.34,0-10.9-.23-16.01-.7V0h155.21c3.71,.23,7.19,.93,10.44,2.09q.23,0,.46,.23c6.73,2.32,12.76,6.03,17.63,10.9,8.12,8.35,13.22,19.95,13.22,32.48h0Z"/><path class="cls-2" d="M506.29,183.52c0,33.64-12.99,64.96-36.89,88.63-25.06,25.06-58,37.35-90.95,36.66-.46-32.95,11.6-65.89,36.66-90.95,24.36-24.36,56.61-36.66,88.63-36.66h2.32c.23,.93,.23,1.62,.23,2.32h0Z"/></svg>