<svg id="mail" xmlns="http://www.w3.org/2000/svg" width="30.995" height="21.458" viewBox="0 0 30.995 21.458">
  <path id="Path_42" data-name="Path 42" d="M34.117,10.36,26.1,18.526a.144.144,0,0,0,0,.209l5.61,5.976a.967.967,0,0,1,0,1.371.971.971,0,0,1-1.371,0l-5.588-5.953a.153.153,0,0,0-.216,0l-1.363,1.386a6,6,0,0,1-4.277,1.8,6.119,6.119,0,0,1-4.366-1.855l-1.311-1.334a.153.153,0,0,0-.216,0L7.413,26.081a.971.971,0,0,1-1.371,0,.967.967,0,0,1,0-1.371l5.61-5.976a.159.159,0,0,0,0-.209L3.628,10.36a.147.147,0,0,0-.253.1V26.8a2.391,2.391,0,0,0,2.384,2.384H31.986A2.391,2.391,0,0,0,34.37,26.8V10.464A.149.149,0,0,0,34.117,10.36Z" transform="translate(-3.375 -7.729)"/>
  <path id="Path_43" data-name="Path 43" d="M18.822,21.517A4.051,4.051,0,0,0,21.735,20.3L33.425,8.4a2.342,2.342,0,0,0-1.475-.522H5.7A2.326,2.326,0,0,0,4.226,8.4l11.69,11.9A4.051,4.051,0,0,0,18.822,21.517Z" transform="translate(-3.324 -7.875)"/>
</svg>
