<svg id="orange-calender" xmlns="http://www.w3.org/2000/svg" width="22.425" height="20.7" viewBox="0 0 22.425 20.7">
  <path id="Path_35" data-name="Path 35" d="M23.644,6.75H21.487V8.044a.433.433,0,0,1-.431.431h-.862a.433.433,0,0,1-.431-.431V6.75H9.412V8.044a.433.433,0,0,1-.431.431H8.119a.433.433,0,0,1-.431-.431V6.75H5.531A2.163,2.163,0,0,0,3.375,8.906V23.569a2.163,2.163,0,0,0,2.156,2.156H23.644A2.163,2.163,0,0,0,25.8,23.569V8.906A2.163,2.163,0,0,0,23.644,6.75Zm.431,16.172A1.081,1.081,0,0,1,23,24H6.178A1.081,1.081,0,0,1,5.1,22.922v-9.7a.433.433,0,0,1,.431-.431H23.644a.433.433,0,0,1,.431.431Z" transform="translate(-3.375 -5.025)" fill="#e28736"/>
  <path id="Path_36" data-name="Path 36" d="M10.725,4.931a.433.433,0,0,0-.431-.431H9.431A.433.433,0,0,0,9,4.931V6.225h1.725Z" transform="translate(-4.688 -4.5)" fill="#e28736"/>
  <path id="Path_37" data-name="Path 37" d="M26.475,4.931a.433.433,0,0,0-.431-.431h-.862a.433.433,0,0,0-.431.431V6.225h1.725Z" transform="translate(-8.363 -4.5)" fill="#e28736"/>
</svg>
