<svg xmlns="http://www.w3.org/2000/svg" width="18.497" height="16.185" viewBox="0 0 18.497 16.185">
  <path id="shower" d="M14.077,5.993,8.367,11.7a.867.867,0,0,1-1.226,0l-.409-.409a.867.867,0,0,1,0-1.226l0,0a4.054,4.054,0,0,1-.122-5.072,2.808,2.808,0,0,0-4.3,2.379V18.435H0V7.371A5.119,5.119,0,0,1,8.585,3.6a4.055,4.055,0,0,1,3.854.76l0,0a.867.867,0,0,1,1.226,0l.409.409A.867.867,0,0,1,14.077,5.993Zm-.2,2.616a.578.578,0,1,1-.578-.578A.578.578,0,0,1,13.873,8.608Zm1.156,0a.578.578,0,1,1,.578.578A.578.578,0,0,1,15.029,8.608Zm3.468,0a.578.578,0,1,1-.578-.578A.578.578,0,0,1,18.5,8.608Zm-5.78,1.156a.578.578,0,1,1-.578-.578A.578.578,0,0,1,12.717,9.765Zm1.734-.578a.578.578,0,1,1-.578.578A.578.578,0,0,1,14.451,9.187Zm2.89.578a.578.578,0,1,1-.578-.578A.578.578,0,0,1,17.341,9.765Zm-5.78,1.156a.578.578,0,1,1-.578-.578A.578.578,0,0,1,11.561,10.921Zm1.156,0a.578.578,0,1,1,.578.578A.578.578,0,0,1,12.717,10.921Zm3.468,0a.578.578,0,1,1-.578-.578A.578.578,0,0,1,16.185,10.921Zm-4.624,1.156a.578.578,0,1,1,.578.578A.578.578,0,0,1,11.561,12.077Zm3.468,0a.578.578,0,1,1-.578-.578A.578.578,0,0,1,15.029,12.077Zm-3.468,1.156a.578.578,0,1,1-.578-.578A.578.578,0,0,1,11.561,13.233Zm2.312,0a.578.578,0,1,1-.578-.578A.578.578,0,0,1,13.873,13.233Zm-1.156,1.156a.578.578,0,1,1-.578-.578A.578.578,0,0,1,12.717,14.389Zm-1.156,1.156a.578.578,0,1,1-.578-.578A.578.578,0,0,1,11.561,15.545Z" transform="translate(0 -2.25)" fill="#2f3130"/>
</svg>
