<svg xmlns="http://www.w3.org/2000/svg" width="23.122" height="16.185" viewBox="0 0 23.122 16.185">
  <path id="wifi" d="M22.938,6.689a16.8,16.8,0,0,0-22.754,0,.574.574,0,0,0-.013.83L1.408,8.747a.587.587,0,0,0,.809.014,13.861,13.861,0,0,1,18.687,0,.587.587,0,0,0,.809-.014L22.951,7.52a.575.575,0,0,0-.013-.83ZM11.561,13.811a2.312,2.312,0,1,0,2.312,2.312A2.312,2.312,0,0,0,11.561,13.811Zm7.322-3.02a11.091,11.091,0,0,0-14.644,0,.571.571,0,0,0-.021.836l1.244,1.228a.59.59,0,0,0,.8.029,8.137,8.137,0,0,1,10.6,0,.589.589,0,0,0,.8-.029L18.9,11.627A.571.571,0,0,0,18.883,10.791Z" transform="translate(0 -2.25)" fill="#2f3130"/>
</svg>
